<svg xmlns="http://www.w3.org/2000/svg" width="219.042" height="149.425" viewBox="0 0 219.042 149.425">
  <g id="Group_18119" data-name="Group 18119" transform="translate(0 0)">
    <path id="Path_6063" data-name="Path 6063" d="M67.544,274.643c-1.055.114-2.207.284-3.432.533-5.193,1.057-5.3,4.584-5.255,5.392l-.035-.022a8.558,8.558,0,0,0-1.047,2.485l-.238-10.807a8.025,8.025,0,0,0,.41-1.057c.389,1.2,1.026,2.328,1.575,2.253.714-.1,1.026-2.2.892-3.693.908,1.17,2.437,2.421,3.014,2.035.461-.308.188-1.577-.316-2.731,1.048.632,2.209,1.047,2.569.646.492-.547-.686-2.414-1.773-3.457,1.454.136,3.3-.1,3.425-.758.1-.545-1-1.233-2.179-1.676,1.183-.312,2.29-.856,2.253-1.393-.044-.639-1.686-1.067-3.1-1.132,1.069-.836,2.051-1.992,1.751-2.515-.276-.481-1.561-.295-2.746.129.7-1,1.195-2.133.819-2.52-.468-.482-2.128.35-3.261,1.269.221-1.432.109-3.239-.533-3.4-.537-.137-1.3.915-1.821,2.06-.231-1.2-.7-2.343-1.237-2.343-.768,0-1.39,2.315-1.39,3.824,0,.085,0,.166.006.242-.077-.089-.165-.183-.266-.281-1.082-1.051-3.177-2.217-3.712-1.666-.376.387.118,1.517.819,2.52-1.185-.423-2.47-.61-2.746-.129-.371.646,1.215,2.258,2.5,3.04-.078-.009-.159-.017-.246-.023-1.5-.1-3.857.361-3.91,1.127-.037.538,1.07,1.081,2.253,1.393-1.178.443-2.279,1.131-2.179,1.676.121.662,1.971.893,3.425.758-1.086,1.042-2.264,2.909-1.773,3.457.36.4,1.521-.014,2.569-.646-.5,1.154-.776,2.423-.316,2.731.609.407,2.279-1.01,3.16-2.23-.09,1.492.267,3.543.976,3.624.3.034.61-.282.894-.769l-.8,11.617c-.188,1.353,1.012,2.236,1.12,2.793l.173,7.867a8.494,8.494,0,0,0-.813-1.7l-.035.022c.046-.808-.062-4.335-5.255-5.392-1.225-.249-2.376-.42-3.432-.533a1.121,1.121,0,0,0-.606,2.122,10.211,10.211,0,0,1,3.962,2.993,3.587,3.587,0,0,0,5.268,1.011,8.369,8.369,0,0,1,.928,2.214l.092,4.178c-.023.1-.038.154-.039.158l.043.013.222,10.11,2.064-.017L59.5,299.7a9.92,9.92,0,0,0,0-4.429l-.738-8.12h0c0-.006.042.213,0,0l-.963-3.19a8.492,8.492,0,0,1,1.125-3.2,3.587,3.587,0,0,0,5.268-1.011,10.211,10.211,0,0,1,3.962-2.993,1.121,1.121,0,0,0-.606-2.122Zm-9.427,23.921-.039-1.768A9.426,9.426,0,0,1,58.117,298.564Z" transform="translate(-31.348 -169.147)" fill="#f2f2f2"/>
    <path id="Path_6064" data-name="Path 6064" d="M540.544,274.643c-1.055.114-2.207.284-3.432.533-5.193,1.057-5.3,4.584-5.255,5.392l-.035-.022a8.556,8.556,0,0,0-1.047,2.485l-.238-10.807a8.034,8.034,0,0,0,.41-1.057c.389,1.2,1.026,2.328,1.575,2.253.714-.1,1.026-2.2.892-3.693.908,1.17,2.437,2.421,3.014,2.035.461-.308.188-1.577-.315-2.731,1.048.632,2.209,1.047,2.569.646.492-.547-.686-2.414-1.773-3.457,1.454.136,3.3-.1,3.425-.758.1-.545-1-1.233-2.179-1.676,1.183-.312,2.29-.856,2.253-1.393-.044-.639-1.686-1.067-3.1-1.132,1.069-.836,2.051-1.992,1.751-2.515-.276-.481-1.561-.295-2.746.129.7-1,1.195-2.133.819-2.52-.468-.482-2.128.35-3.261,1.269.221-1.432.109-3.239-.533-3.4-.537-.137-1.3.915-1.821,2.06-.231-1.2-.7-2.343-1.237-2.343-.768,0-1.39,2.315-1.39,3.824,0,.085,0,.166.006.242-.077-.089-.165-.183-.266-.281-1.082-1.051-3.177-2.217-3.712-1.666-.376.387.118,1.517.819,2.52-1.185-.423-2.47-.61-2.746-.129-.371.646,1.215,2.258,2.5,3.04-.077-.009-.159-.017-.246-.023-1.505-.1-3.857.361-3.91,1.127-.037.538,1.07,1.081,2.253,1.393-1.178.443-2.279,1.131-2.179,1.676.121.662,1.971.893,3.425.758-1.086,1.042-2.264,2.909-1.773,3.457.36.4,1.521-.014,2.569-.646-.5,1.154-.776,2.423-.315,2.731.609.407,2.279-1.01,3.16-2.23-.09,1.492.267,3.543.976,3.624.3.034.61-.282.894-.769l-.8,11.617c-.188,1.353,1.012,2.236,1.12,2.793l.173,7.867a8.494,8.494,0,0,0-.813-1.7l-.035.022c.045-.808-.062-4.335-5.255-5.392-1.225-.249-2.376-.42-3.432-.533a1.121,1.121,0,0,0-.606,2.122,10.211,10.211,0,0,1,3.962,2.993,3.587,3.587,0,0,0,5.268,1.011,8.369,8.369,0,0,1,.928,2.214l.092,4.178c-.023.1-.038.154-.039.158l.043.013.222,10.11,2.064-.017L532.5,299.7a9.921,9.921,0,0,0,0-4.429l-.738-8.12h0c0-.006.042.213,0,0l-.963-3.19a8.492,8.492,0,0,1,1.125-3.2,3.587,3.587,0,0,0,5.268-1.011,10.211,10.211,0,0,1,3.962-2.993,1.121,1.121,0,0,0-.606-2.122Zm-9.427,23.921-.039-1.768A9.424,9.424,0,0,1,531.116,298.564Z" transform="translate(-346.41 -169.147)" fill="#f2f2f2"/>
    <path id="Path_6065" data-name="Path 6065" d="M466.165,126.707l-.968-23.071s-1.087-13.7-1.957-18.48-6.74-3.478-6.74-3.478l.652,13.7,2.814,14.017,2.19,19.087a8.931,8.931,0,0,0-.177,1.782c0,2.674,1.117,4.842,2.494,4.842s2.494-2.168,2.494-4.842a7.481,7.481,0,0,0-.8-3.554Z" transform="translate(-304.072 -54.297)" fill="#ffb6b6"/>
    <path id="Path_6066" data-name="Path 6066" d="M340.8,120.729a7.328,7.328,0,0,1,3.368-2.379l13.016-14.714s1.087-13.7,1.957-18.48,6.74-3.479,6.74-3.479l-.652,13.7-3.7,14.784-15.231,12.931a8.873,8.873,0,0,1-.983,1.434c-1.853,2.207-4.367,3.147-5.615,2.1s-.757-3.686,1.1-5.893Z" transform="translate(-225.818 -54.297)" fill="#ffb6b6"/>
    <path id="Path_6067" data-name="Path 6067" d="M430.131,64.325l1.51-5.8,5.882-.283,1.76,8Z" transform="translate(-286.508 -38.792)" fill="#ffb6b6"/>
    <path id="Path_6068" data-name="Path 6068" d="M430.131,64.325l1.51-5.8,5.882-.283,1.76,8Z" transform="translate(-286.508 -38.792)" opacity="0.1"/>
    <g id="Group_17839" data-name="Group 17839" transform="translate(116.005 120.311)">
      <path id="Path_6069" data-name="Path 6069" d="M374.159,360.629l-5.509-.315.723,16.907,3.733.214Z" transform="translate(-361.56 -360.314)" fill="#ffb6b6"/>
      <path id="Path_6070" data-name="Path 6070" d="M354.752,394.939l1.913.873,0,1.16s.462-1.342,2.939-1.635l.3,1.124a4.356,4.356,0,0,1,.8,3.1l-.631,5.342-1.868-.043-.3-3.717s-.515-.843-2.885,3.164a12.867,12.867,0,0,1-6.655-.7,1.356,1.356,0,0,1-.935-1.291.688.688,0,0,1,.536-.73c1.032-.273,2.041.073,2.708-.751s4.091-5.9,4.091-5.9Z" transform="translate(-347.418 -383.377)" fill="#2f2e41"/>
    </g>
    <g id="Group_17840" data-name="Group 17840" transform="translate(145.572 120.311)">
      <path id="Path_6071" data-name="Path 6071" d="M462.708,360.629l-5.509-.315.723,16.907,3.733.214Z" transform="translate(-450.11 -360.314)" fill="#ffb6b6"/>
      <path id="Path_6072" data-name="Path 6072" d="M443.3,394.939l1.913.873,0,1.16s.461-1.342,2.939-1.635l.3,1.124a4.356,4.356,0,0,1,.8,3.1l-.631,5.342-1.868-.043-.3-3.717s-.515-.843-2.885,3.164a12.867,12.867,0,0,1-6.655-.7,1.356,1.356,0,0,1-.935-1.291.688.688,0,0,1,.536-.73c1.032-.273,2.041.073,2.708-.751s4.091-5.9,4.091-5.9Z" transform="translate(-435.968 -383.377)" fill="#2f2e41"/>
    </g>
    <circle id="Ellipse_372" data-name="Ellipse 372" cx="6.522" cy="6.522" r="6.522" transform="translate(141.624 10.103)" fill="#ffb6b6"/>
    <path id="Path_6073" data-name="Path 6073" d="M434.269,17.709s-2.868-4.692-5.738-4.174a40.2,40.2,0,0,0-4.367.985,4.6,4.6,0,0,1,2.756-5.536s-5.554-4.65.365-7.634,9.6-.092,9.6-.092,4.9,4.155-.533,8c0,0,4.7,5.355-.047,10.47,0,0,.838-3.9-.3-3.1A13.281,13.281,0,0,1,434.269,17.709Z" transform="translate(-282.425 0)" fill="#2f2e41"/>
    <path id="Path_6074" data-name="Path 6074" d="M421.776,75.6l-8.914-1.087-6.848,5.544s-3.406,9.49-.87,15.218c.061.137.109,9.675.109,9.675h18.938s-.018-6.492.705-8.843a1.822,1.822,0,0,1,.358-.723c1.087-1.087,3.7-8.044,2.391-11.088s-5.87-8.7-5.87-8.7Z" transform="translate(-269.238 -49.634)" fill="#f3004b"/>
    <path id="Path_6075" data-name="Path 6075" d="M377.96,164.367,366,202.413l-2.609,30h7.283l6.2-27.828,8.533-16.108,8.425,46.11h7.351l-.177-62.4-4.013-7.827Z" transform="translate(-242.054 -109.484)" fill="#2f2e41"/>
    <rect id="Rectangle_6425" data-name="Rectangle 6425" width="219.042" height="0.668" transform="translate(0 140.961)" fill="#3f3d56"/>
    <g id="Group_17841" data-name="Group 17841" transform="translate(35.56 59.102)">
      <path id="Path_6076" data-name="Path 6076" d="M227.625,180.482c-2.171-3.5-7.237-4.319-11-2.651s-6.363,5.224-8.131,8.94-2.88,7.72-4.7,11.413c-5.346,10.865-16.173,17.961-22.984,27.973a44.514,44.514,0,0,0-7.64,25.753c.072,3.484.635,7.15,2.809,9.873,3.227,4.042,8.941,4.871,14.086,5.4,2.989.309,6.657.3,8.2-2.28.609-1.021-5.934-4.582-5.829-5.766.566-6.388,7.795-10.445,8.361-16.834.888,4.451-.25,9.047-.07,13.583s2.415,9.666,6.857,10.6a4.532,4.532,0,0,0,3.957-.85,2.8,2.8,0,0,0,.417-3.766,3.175,3.175,0,0,0,5.384-2.83,7.753,7.753,0,0,0-1.368-2.632A18.257,18.257,0,0,1,213.94,240.9c3-9.053,12.842-14.963,14.51-24.353,1.238-6.973-2.295-14.875,1.455-20.884,1.69-2.708,4.559-4.415,6.847-6.64s4.078-5.629,2.768-8.54l-11.7-.013" transform="translate(-150.905 -177)" fill="#3f3d56"/>
      <path id="Path_6077" data-name="Path 6077" d="M199.617,381.288a1.856,1.856,0,0,1-.878-.232,2.538,2.538,0,0,1-1.276-1.794,5.867,5.867,0,0,1,.864-3.357c1.277-2.6,2.54-5.389,2.726-8.282.2-3.159-1.078-6.087-3.264-7.46a8,8,0,0,0-6.108-.738,22.731,22.731,0,0,0-5.914,2.61.334.334,0,0,1-.329-.581,23.614,23.614,0,0,1,6.089-2.679,8.652,8.652,0,0,1,6.616.823c2.391,1.5,3.794,4.668,3.576,8.068-.194,3.015-1.486,5.869-2.793,8.533a5.29,5.29,0,0,0-.8,2.963,1.874,1.874,0,0,0,.931,1.305,1.053,1.053,0,0,0,.956.066.334.334,0,1,1,.282.605,1.59,1.59,0,0,1-.676.15Z" transform="translate(-158.968 -297.883)" fill="#2f2e41"/>
      <path id="Path_6078" data-name="Path 6078" d="M290.917,186.741a3.769,3.769,0,0,0,.955,3.525c.808.986,1.847,1.778,2.559,2.836,1.493,2.216,1.269,5.245.122,7.659a23.276,23.276,0,0,1-4.979,6.229,2.722,2.722,0,0,0-.824-2.223,21.24,21.24,0,0,0-1.878-1.581,8.872,8.872,0,0,1-2.085-10.412" transform="translate(-224.678 -183.489)" fill="#2f2e41"/>
      <path id="Path_6079" data-name="Path 6079" d="M133.185,366.279c-2.453-.3-4.525,1.907-6.973,2.245-2.831.391-5.434-1.848-6.693-4.414s-1.583-5.477-2.449-8.2-2.538-5.481-5.261-6.347a4.6,4.6,0,0,0-3.5.214,3.316,3.316,0,0,0-1.813,2.894c.033,1.475,1.164,2.655,1.849,3.962,1.09,2.079,1.056,4.541,1.538,6.838a15.518,15.518,0,0,0,11.122,11.594,10.792,10.792,0,0,0,8.447-1.032c2.451-1.585,3.944-4.777,3.037-7.551" transform="translate(-106.498 -291.781)" fill="#3f3d56"/>
    </g>
  </g>
</svg>
