<svg xmlns="http://www.w3.org/2000/svg" xmlns:xlink="http://www.w3.org/1999/xlink" width="223.502" height="207.672" viewBox="0 0 223.502 207.672">
  <defs>
    <linearGradient id="linear-gradient" x1="0.145" y1="0.045" x2="0.831" y2="0.953" gradientUnits="objectBoundingBox">
      <stop offset="0" stop-color="#e68b5c"/>
      <stop offset="1" stop-color="#ff6e24"/>
    </linearGradient>
  </defs>
  <g id="Group_18083" data-name="Group 18083" transform="translate(-71 -108)">
    <path id="Rectangle_20" data-name="Rectangle 20" d="M19.749,0H183.5c10.907,0,19.749,10.288,19.749,22.98V172.35c0,12.691-8.842,22.98-19.749,22.98H19.749C8.842,195.329,0,185.041,0,172.35V22.98C0,10.288,8.842,0,19.749,0Z" transform="translate(84.988 120.343)" fill="#f5f4f6" opacity="0.4"/>
    <g id="Group_1626" data-name="Group 1626">
      <path id="Rectangle_18" data-name="Rectangle 18" d="M30.035,0H81.876a30.035,30.035,0,0,1,30.035,30.035v37.03A30.035,30.035,0,0,1,81.876,97.1H30.035A30.035,30.035,0,0,1,0,67.065V30.035A30.035,30.035,0,0,1,30.035,0Z" transform="translate(132 197.082)" fill="#ff8341"/>
      <g id="Group_18082" data-name="Group 18082">
        <path id="Path_15" data-name="Path 15" d="M0,52.152V31.714A31.714,31.714,0,0,1,31.714,0h0A31.714,31.714,0,0,1,63.427,31.714V52.152" transform="translate(156.006 152)" fill="none" stroke="#ff7c38" stroke-width="16.458" opacity="0.17"/>
        <path id="Rectangle_19" data-name="Rectangle 19" d="M32.092,0H76.528A32.092,32.092,0,0,1,108.62,32.092V65.007A32.092,32.092,0,0,1,76.528,97.1H32.092A32.092,32.092,0,0,1,0,65.007V32.092A32.092,32.092,0,0,1,32.092,0Z" transform="translate(132 197.082)" fill="url(#linear-gradient)"/>
      </g>
      <path id="Path_17" data-name="Path 17" d="M31.949,15.972A15.975,15.975,0,1,0,10.378,30.937L9.866,42.124a2.4,2.4,0,0,0,2.349,2.509h8.457a2.4,2.4,0,0,0,2.391-2.509l-.576-11.586a15.974,15.974,0,0,0,9.458-14.565Z" transform="translate(171.981 223.418)" fill="#fff"/>
    </g>
    <text id="_" data-name="**" transform="translate(71 151.612)" fill="#ff942c" font-size="38.675" font-family="Roboto-Regular, Roboto" letter-spacing="0.078em"><tspan x="0" y="37">**</tspan></text>
    <text id="_2" data-name="**" transform="translate(254.502 108)" fill="#ff942c" font-size="38.675" font-family="Roboto-Regular, Roboto" letter-spacing="0.129em"><tspan x="0" y="37">*</tspan><tspan x="0" y="84">*</tspan></text>
  </g>
</svg>
